# xmcd
# Track frame offsets:
# 150
# 16115
# 29566
# 42849
# 55247
# 66754
# 78972
# 91183
# 105309
# 121518
# 133673
#
# Disc length: 1911 seconds
# Revision: 0
# Processed by: cddbd v1.5.2PL0 Copyright (c) Steve Scherf et al.
# Submitted via: VisiTrax 2.11.3.279 - For more info visit www.synapsa.com
#
DISCID=7c07750b
DTITLE=Fred Lewis and Ridin' High - Woodstock, Ontario
DYEAR=1995
DGENRE=Country
TTITLE0=Dylan, Bob - Lewis, Fred - Knocking on Heaven's Door
TTITLE1=Lewis, Fred - Cant' All Be Bad
TTITLE2=Boudry, Dirk - Woodall, Rusty - Lewis, Fred - For Tonight
TTITLE3=Lewis, Fred - Please
TTITLE4=Rich, Charlie - Lewis, Fred - Sittin' and Thinkin'
TTITLE5=Melanson, Guy - Lewis, Fred - Caroline
TTITLE6=Lewis, Fred - Don't Fade on Me
TTITLE7=Harrington, Edward - Lewis, Fred - Wouldn't Lay My Guitar Down
TTITLE8=Boudry, Dirk - Woodall, Rusty - Lewis, Fred - Don't Forget
TTITLE9=Boudry, Dirk - Woodall, Rusty - Lewis, Fred - Lodi
TTITLE10=Berry, Chuck - Lewis, Fred - Memphis Tennessee
EXTD=BOSS Records BRCD-103
EXTT0=
EXTT1=
EXTT2=
EXTT3=
EXTT4=
EXTT5=
EXTT6=
EXTT7=
EXTT8=
EXTT9=
EXTT10=
PLAYORDER=
